<svg xmlns="http://www.w3.org/2000/svg" width="106" height="34">
    <path fill="#FF317B" fill-rule="evenodd" d="M100.88 34.001c-1.281 0-2.438-.488-3.336-1.266a54.499 54.499 0 0 0-1.324-1.757C86.164 18.156 70.549 9.909 53 9.909c-17.552 0-33.169 8.25-43.225 21.076-.45.573-.889 1.155-1.316 1.746-.899.781-2.057 1.27-3.34 1.27a5.124 5.124 0 0 1-5.121-5.126c0-.644.132-1.254.349-1.822a63.962 63.962 0 0 1 1.69-2.247C13.907 9.707 32.315-.001 53-.001c20.687 0 39.096 9.71 50.966 24.811a64.41 64.41 0 0 1 1.684 2.238c.218.569.351 1.181.351 1.827a5.124 5.124 0 0 1-5.121 5.126z"/>
</svg>
